<?xml version="1.0" encoding="UTF-8"?>
<svg width="18px" height="18px" viewBox="0 0 18 18" version="1.1" xmlns="http://www.w3.org/2000/svg" xmlns:xlink="http://www.w3.org/1999/xlink">
    <!-- Generator: Sketch 55.2 (78181) - https://sketchapp.com -->
    <title>logomark__stripe-reps</title>
    <desc>Created with Sketch.</desc>
    <g id="logomark__stripe-reps" stroke="none" stroke-width="1" fill="none" fill-rule="evenodd">
        <path d="M6.98425197,8.16923077 C6.98425197,7.56923077 7.48818898,7.33846154 8.32283465,7.33846154 C9.51968504,7.33846154 11.0314961,7.69230769 12.2283465,8.32307692 L12.2283465,4.70769231 C10.9212598,4.2 9.62992126,4 8.32283465,4 C5.12598425,4 3,5.63076923 3,8.35384615 C3,12.6 8.98425197,11.9230769 8.98425197,13.7538462 C8.98425197,14.4615385 8.35433071,14.6923077 7.47244094,14.6923077 C6.16535433,14.6923077 4.49606299,14.1692308 3.17322835,13.4615385 L3.17322835,17.1230769 C4.63779528,17.7384615 6.11811024,18 7.47244094,18 C10.7480315,18 13,16.4153846 13,13.6615385 C12.984252,9.07692308 6.98425197,9.89230769 6.98425197,8.16923077 Z" id="Path" fill="#9FA3A8"></path>
        <polygon id="Rectangle" fill="#5C7CFA" points="11 0 18 0 18 7"></polygon>
    </g>
</svg>