<svg width="18" height="18" xmlns="http://www.w3.org/2000/svg"><g fill="none" fill-rule="evenodd"><path d="M6.984 8.17c0-.6.504-.832 1.339-.832 1.197 0 2.708.354 3.905.985V4.708C10.921 4.2 9.63 4 8.323 4 5.126 4 3 5.63 3 8.354c0 4.246 5.984 3.57 5.984 5.4 0 .708-.63.938-1.512.938-1.307 0-2.976-.523-4.299-1.23v3.661c1.465.615 2.945.877 4.3.877C10.747 18 13 16.415 13 13.662c-.016-4.585-6.016-3.77-6.016-5.493z" fill="#9FA3A8"/><path d="M15.071 2.929A9.969 9.969 0 0 0 8 0h10l-2.929 2.929z" fill="#CE182D"/><path d="M18 10a9.969 9.969 0 0 0-2.929-7.071L18 0v10z" fill="#940418"/></g></svg>
