<?xml version="1.0" encoding="UTF-8"?>
<svg width="20px" height="20px" viewBox="0 0 20 20" version="1.1" xmlns="http://www.w3.org/2000/svg" xmlns:xlink="http://www.w3.org/1999/xlink">
    <!-- Generator: Sketch 55.2 (78181) - https://sketchapp.com -->
    <title>logomark__stripe-reps</title>
    <desc>Created with Sketch.</desc>
    <g id="logomark__stripe-reps" stroke="none" stroke-width="1" fill="none" fill-rule="evenodd">
        <path d="M8.38267717,9.46703297 C8.38267717,8.82417582 8.93700787,8.57692308 9.85511811,8.57692308 C11.1716535,8.57692308 12.8346457,8.95604396 14.1511811,9.63186813 L14.1511811,5.75824176 C12.7133858,5.21428571 11.2929134,5 9.85511811,5 C6.33858268,5 4,6.74725275 4,9.66483516 C4,14.2142857 10.5826772,13.489011 10.5826772,15.4505495 C10.5826772,16.2087912 9.88976378,16.456044 8.91968504,16.456044 C7.48188976,16.456044 5.64566929,15.8956044 4.19055118,15.1373626 L4.19055118,19.0604396 C5.8015748,19.7197802 7.42992126,20 8.91968504,20 C12.5228346,20 15,18.3021978 15,15.3516484 C14.9826772,10.4395604 8.38267717,11.3131868 8.38267717,9.46703297 Z" id="Path" fill="#9FA3A8"></path>
        <g id="brandmark-corner/orange" transform="translate(9.000000, 0.000000)">
            <g id="brandmark-corner">
                <path d="M7.77817459,3.22182541 C5.78756612,1.23121694 3.03756612,-2.84217094e-14 0,-2.84217094e-14 L11,-2.84217094e-14 L7.77817459,3.22182541 Z" id="Combined-Shape" fill="#CE182D"></path>
                <path d="M11,11 C11,7.96243388 9.76878306,5.21243388 7.77817459,3.22182541 L11,0 L11,11 Z" id="Combined-Shape" fill="#940418"></path>
            </g>
        </g>
    </g>
</svg>